<?xml version="1.0" encoding="UTF-8"?>
<svg id="Layer_2" data-name="Layer 2" xmlns="http://www.w3.org/2000/svg" viewBox="0 0 100 879.5">
  <defs>
    <style>
      .cls-1 {
        fill: #f65617;
      }

      .cls-2 {
        fill: #f2491f;
      }

      .cls-3 {
        fill: #fff;
      }

      .cls-4 {
        fill: #0a0808;
      }

      .cls-5 {
        fill: #231e1b;
        font-family: MyriadPro-Regular, 'Myriad Pro';
        font-size: 10px;
      }

      .cls-6 {
        fill: #ffb905;
      }

      .cls-7 {
        fill: #f9f2df;
      }

      .cls-8 {
        letter-spacing: 0em;
      }

      .cls-9 {
        fill: #ff8e21;
      }
    </style>
  </defs>
  <g id="Swatch_Info_Layer" data-name="Swatch Info Layer">
    <g>
      <g>
        <text class="cls-5" transform="translate(0 877)"><tspan x="0" y="0">H</tspan><tspan class="cls-8" x="6.52" y="0">e</tspan><tspan x="11.5" y="0" xml:space="preserve">x          #FFFFFF</tspan></text>
        <rect class="cls-3" x="0" y="762" width="100" height="100"/>
      </g>
      <g>
        <text class="cls-5" transform="translate(0 750)"><tspan x="0" y="0">H</tspan><tspan class="cls-8" x="6.52" y="0">e</tspan><tspan x="11.5" y="0" xml:space="preserve">x          #FFB905</tspan></text>
        <rect class="cls-6" x="0" y="635" width="100" height="100"/>
      </g>
      <g>
        <text class="cls-5" transform="translate(0 623)"><tspan x="0" y="0">H</tspan><tspan class="cls-8" x="6.52" y="0">e</tspan><tspan x="11.5" y="0" xml:space="preserve">x          #FF8E21</tspan></text>
        <rect class="cls-9" x="0" y="508" width="100" height="100"/>
      </g>
      <g>
        <text class="cls-5" transform="translate(0 496)"><tspan x="0" y="0">H</tspan><tspan class="cls-8" x="6.52" y="0">e</tspan><tspan x="11.5" y="0" xml:space="preserve">x          #F65617</tspan></text>
        <rect class="cls-1" x="0" y="381" width="100" height="100"/>
      </g>
      <g>
        <text class="cls-5" transform="translate(0 369)"><tspan x="0" y="0">H</tspan><tspan class="cls-8" x="6.52" y="0">e</tspan><tspan x="11.5" y="0" xml:space="preserve">x          #F2491F</tspan></text>
        <rect class="cls-2" x="0" y="254" width="100" height="100"/>
      </g>
      <g>
        <text class="cls-5" transform="translate(0 242)"><tspan x="0" y="0">H</tspan><tspan class="cls-8" x="6.52" y="0">e</tspan><tspan x="11.5" y="0" xml:space="preserve">x          #F9F2DF</tspan></text>
        <rect class="cls-7" x="0" y="127" width="100" height="100"/>
      </g>
      <g>
        <text class="cls-5" transform="translate(0 115)"><tspan x="0" y="0">H</tspan><tspan class="cls-8" x="6.52" y="0">e</tspan><tspan x="11.5" y="0" xml:space="preserve">x          #0A0808</tspan></text>
        <rect class="cls-4" x="0" width="100" height="100"/>
      </g>
    </g>
  </g>
</svg>