<?xml version="1.0" encoding="UTF-8"?>
<svg id="Layer_2" data-name="Layer 2" xmlns="http://www.w3.org/2000/svg" viewBox="0 0 201.91 162.55">
  <defs>
    <style>
      .cls-1 {
        fill: #f23d17;
      }

      .cls-2 {
        fill: #0d0e0a;
      }

      .cls-3 {
        fill: #f8f1e0;
      }

      .cls-4 {
        fill: #f44c23;
      }

      .cls-5 {
        fill: #fdbb10;
      }

      .cls-6 {
        fill: #f7efde;
      }
    </style>
  </defs>
  <g id="Layer_3" data-name="Layer 3">
    <g>
      <g>
        <path class="cls-1" d="M153.47,85.81c0,42.38-34.36,76.74-76.74,76.74S0,128.19,0,85.81,34.36,9.07,76.74,9.07s76.74,34.36,76.74,76.74ZM143.5,95.57c.33-3.1,1.27-6.23.97-9.36-3.89-5.29-8.15-10.26-12.7-14.99.03-3.69.81-7.38,1.04-11.08.16-2.57.51-7.4-.05-9.76s-4.54-4.81-6.01-1.75c-.1,7.41.14,14.99-1.79,22.19-4.46,1.96-8.91,4-13.46,5.72-2.07.78-6.12,2.5-8.12,2.8-.23.03-.43.13-.66,0l-23-17.13c-.38-6.55-.39-13.12-.29-19.69,4.97-3.73,10.17-7.34,15.65-10.29,2.36-1.27,4.99-2.19,7.28-3.41,1.42-.76,2.93-1.97,1.9-3.8-.49-.86-3.99-1.86-4.92-1.85s-7.89,3.81-9.19,4.55c-1.77,1-3.57,2.12-5.28,3.22-1.23.79-8.31,5.94-8.86,5.97-.81.05-4.51-2.4-5.54-2.95-4.95-2.63-10.29-5.24-15.59-7.08-1.2-.42-4.65-1.7-5.69-1.72-.98-.02-5.63,2.38-6.77,3-6.79,3.68-12.13,8.88-18.12,13.6-1.55,9.6-2.11,19.29-1.62,29.01-1.95,2.2-4.29,3.99-6.28,6.14-1.33,1.44-7.23,8.56-7.42,10.02-.1.77.16,3.01.26,3.91.06.57.86,6.02,1.17,6.02,3.86-7.7,9.07-14.75,15.73-20.24,7.48,3.27,14.99,6.46,22.63,9.34,2.27,8.66,4.63,17.29,7.66,25.71l-.02.64-13.75,20.03c-3.05-.49-6.07-1.17-9.03-2.03-3.41-.99-6.63-2.46-10.02-3.49,1.28,1.55,2.47,3.19,3.81,4.69,1,1.12,3.81,4.25,4.92,4.89.62.36,2.39.72,3.21.93,2.41.63,4.9.92,7.3,1.58l5.23,7.79c.9.76,7.72,3.25,8.98,3.34.26.02.96.15.76-.32-2.89-2.96-4.77-6.62-6.88-10.12-.43-.72-2.53-3.51-2.46-4,3.08-4.82,6.22-9.61,9.47-14.31.52-.75,3.25-4.89,3.73-5l11.72.85c5.47.18,10.91-.46,16.35-.67.68-.03,1.58-.15,2.1.32l13.07,18.99c-2.79,5.1-6.24,9.87-10.04,14.27,1.36,0,2.78-.44,4.09-.81s5.25-1.64,6.15-2.36c.43-.34,1.29-1.7,1.67-2.25,1.32-1.9,2.28-4.06,3.7-5.89,1.76-.43,3.58-.58,5.36-.96,2.09-.45,4.32-.72,5.96-2.11,2.98-2.5,5.61-5.92,8.17-8.84-.15-.3-.55.04-.76.11-1.9.63-3.71,1.59-5.61,2.24-4.28,1.47-8.84,2.5-13.32,3.19l-13.49-19.66-.08-.81c2.93-8.45,5.44-17.05,7.65-25.72l.46-.63c2.61-.84,5.21-1.71,7.77-2.69,4.29-1.65,10.07-4.73,14.21-5.84,1.31-.35,1.51.14,2.52.99,3.23,2.73,7.21,7.55,9.68,11.03,1.36,1.92,2.58,4.45,3.99,6.24.14.18,0,.4.5.28Z"/>
        <path class="cls-5" d="M143.5,95.57c-.5.13-.36-.1-.5-.28-1.41-1.8-2.63-4.33-3.99-6.24-2.46-3.48-6.44-8.31-9.68-11.03-1.01-.85-1.21-1.34-2.52-.99-4.15,1.11-9.92,4.19-14.21,5.84-2.56.98-5.16,1.86-7.77,2.69l-.46.63c-2.21,8.67-4.72,17.27-7.65,25.72l.08.81,13.49,19.66c4.48-.69,9.04-1.71,13.32-3.19,1.9-.65,3.71-1.61,5.61-2.24.21-.07.62-.41.76-.11-2.56,2.92-5.19,6.33-8.17,8.84-1.64,1.38-3.87,1.66-5.96,2.11-1.78.38-3.59.53-5.36.96-1.42,1.84-2.38,3.99-3.7,5.89-.38.55-1.24,1.91-1.67,2.25-.9.71-4.87,1.99-6.15,2.36s-2.73.81-4.09.81c3.8-4.4,7.25-9.17,10.04-14.27l-13.07-18.99c-.51-.47-1.42-.34-2.1-.32-5.44.21-10.88.85-16.35.67l-11.72-.85c-.48.11-3.21,4.24-3.73,5-3.25,4.7-6.4,9.49-9.47,14.31-.07.49,2.03,3.28,2.46,4,2.12,3.51,3.99,7.16,6.88,10.12.2.47-.5.34-.76.32-1.26-.09-8.08-2.57-8.98-3.34l-5.23-7.79c-2.4-.66-4.9-.94-7.3-1.58-.82-.21-2.59-.58-3.21-.93-1.12-.64-3.92-3.76-4.92-4.89-1.34-1.5-2.53-3.14-3.81-4.69,3.39,1.03,6.61,2.5,10.02,3.49,2.96.86,5.98,1.54,9.03,2.03l13.75-20.03.02-.64c-3.03-8.42-5.4-17.06-7.66-25.71-7.65-2.88-15.15-6.08-22.63-9.34-6.66,5.49-11.87,12.53-15.73,20.24-.31,0-1.11-5.45-1.17-6.02-.1-.89-.35-3.14-.26-3.91.19-1.46,6.08-8.58,7.42-10.02,1.99-2.15,4.33-3.95,6.28-6.14-.49-9.72.07-19.41,1.62-29.01,5.98-4.72,11.33-9.92,18.12-13.6,1.14-.62,5.8-3.02,6.77-3,1.04.03,4.49,1.31,5.69,1.72,5.3,1.84,10.64,4.45,15.59,7.08,1.03.55,4.73,3,5.54,2.95.56-.03,7.63-5.19,8.86-5.97,1.72-1.1,3.51-2.21,5.28-3.22,1.3-.74,8.29-4.54,9.19-4.55s4.44.99,4.92,1.85c1.04,1.83-.47,3.03-1.9,3.8-2.28,1.22-4.92,2.14-7.28,3.41-5.48,2.95-10.69,6.56-15.65,10.29-.1,6.58-.09,13.14.29,19.69l23,17.13c.23.13.43.03.66,0,2-.3,6.04-2.02,8.12-2.8,4.56-1.72,9.01-3.76,13.46-5.72,1.93-7.2,1.69-14.78,1.79-22.19,1.47-3.06,5.47-.52,6.01,1.75s.21,7.18.05,9.76c-.24,3.7-1.01,7.38-1.04,11.08,4.55,4.73,8.81,9.69,12.7,14.99.3,3.13-.64,6.26-.97,9.36ZM48.61,31.75c-.31.04-1.63.62-2.05.79-4.26,1.76-9.51,5.33-12.93,8.43-.64.58-3.16,2.95-3.46,3.52-.46.88-.78,4.05-.9,5.21-.6,5.7-.61,11.96-.22,17.66.1,1.43-.5,2.63.8,3.56,3.3,2.35,12.26,5.8,16.31,7.23,1.22.43,4.2,1.71,5.25,1.1,1.21-.71,3.31-2.92,4.57-3.93,4.96-3.99,10.81-8.04,15.47-12.22.53-.48,1.02-1.01,1.53-1.52.13-3.8.21-7.64.12-11.45-.01-.62-.22-1.15-.24-1.72-.05-1.62.22-3.74.02-5.25-.12-.9-1.55-1.52-2.34-2.02-4.64-2.91-10.92-5.85-16.09-7.68-1.02-.36-5.07-1.8-5.84-1.7ZM98.13,83.84l-22.21-16.28-20.68,16.84c1.86,8.58,4.2,17.06,7.05,25.36.2.23,1.37.39,1.75.43,7.28.68,17.42.94,24.63,0,.64-.08,1.39-.19,1.98-.42.59-.41,2.86-8.29,3.25-9.61,1.59-5.38,2.97-10.85,4.23-16.32Z"/>
        <path class="cls-1" d="M48.61,31.75c.77-.1,4.82,1.34,5.84,1.7,5.17,1.82,11.44,4.77,16.09,7.68.79.5,2.22,1.12,2.34,2.02.2,1.51-.07,3.64-.02,5.25.02.58.22,1.1.24,1.72.09,3.81,0,7.65-.12,11.45-.5.51-.99,1.04-1.53,1.52-4.66,4.18-10.51,8.23-15.47,12.22-1.26,1.01-3.36,3.22-4.57,3.93-1.05.61-4.02-.67-5.25-1.1-4.05-1.43-13.01-4.89-16.31-7.23-1.3-.93-.7-2.13-.8-3.56-.39-5.7-.38-11.96.22-17.66.12-1.16.43-4.32.9-5.21.3-.56,2.81-2.94,3.46-3.52,3.43-3.09,8.67-6.67,12.93-8.43.42-.17,1.74-.75,2.05-.79Z"/>
        <path class="cls-1" d="M98.13,83.84c-1.26,5.47-2.64,10.93-4.23,16.32-.39,1.32-2.66,9.2-3.25,9.61-.6.23-1.35.33-1.98.42-7.21.94-17.34.68-24.63,0-.38-.04-1.55-.2-1.75-.43-2.85-8.3-5.18-16.78-7.05-25.36l20.68-16.84,22.21,16.28Z"/>
      </g>
      <g>
        <path class="cls-2" d="M194.62,15.36c-.1.05-.44,0-.69.15-3.53,1.91-7.03,3.9-10.51,5.89l-1.81,10.07.13.3,13.58,5.03c2.04,1.1,1.99,2.75,1.95,4.84-.09,4.77-.54,9.87-.75,14.69-.74,16.75-1.56,33.52-2.28,50.27-.17,3.88.22,8.87-.41,12.58-.45,2.61-3.68,2.86-5.83,3.4-17.03,4.33-35.28,8.43-52.51,11.9-1.39.28-3.09.86-4.44.48-7.98-5-15.55-10.73-23.42-15.94-.87-.75-1.43-1.32-1.63-2.51-.47-2.77-.03-7.12-.08-10.09-.26-15.25-.45-30.49-.57-45.77-.06-7.28-.53-14.73-.2-22.04.04-.84.11-2.8.28-3.48.94-3.68,7.86-2.73,10.74-3.57,15.4-.82,31.18-3.79,46.52-4.52,2.43-.11,4.9-.04,7.16.93.2-.13.23-.25.28-.47.79-4.12.61-10.23,2.79-13.78,1.51-2.45,5.98-4.74,8.51-6.27,4.05-2.46,8.26-4.71,12.3-7.19,4.87-1.91,10.14,7.02,7.44,11.02-.84,1.24-5.04,3.26-6.56,4.08ZM198.57,8.4c-.19-1.96-1.48-3.72-3.01-4.9-.01,2.02,1.12,4.08,3.01,4.9ZM187.46,8.02c-1.31.76-2.65,1.48-3.96,2.26-2.19,1.31-4.42,2.36-6.4,3.96-1.53,1.23-1.5,1.25-2.07,3.2s-.62,3.66-.94,5.65c-.24,1.5-.53,3.01-.75,4.52-.28,1.92-.56,3.85-.93,5.76.06.87,3.31,1.08,4.04,1.01.41-.04.83-.15,1.23-.28.45-.34.46-2.53.56-3.11.26-1.44.5-2.89.75-4.33.27-1.57.63-4.94,1.13-6.22.43-1.09,2.01-2.42,3.01-3.01,1.94-1.15,4.53-2.3,6.59-3.39,1.4-.74,2.97-1.79,4.33-2.45.58-.28,1.67-.43,2.26-.85-.91-.64-1.81-1.33-2.42-2.29-.69-1.08-.89-2.33-1.45-3.45-1.57.86-3.13,1.76-4.68,2.67-.17.1-.25.31-.31.35ZM169.56,31.01l-4.04-.96c-17.79,1.83-35.65,3.09-53.41,5.18l7.99,3.65c16.26-2.34,32.68-3.51,48.94-5.81l.51-2.06ZM180.3,36.65c-3.22,1.21-6.43.92-9.61-.19-.19-.07-.37-.13-.57-.19-.08-.14-.31-.14-.38-.19-.16-.13-.21-.49-.65-.39-10.91,1.88-21.98,2.57-32.97,3.78-3.67.41-7.33,1.06-11.02,1.32l8.59,3.76,55.63-6.59-8.18-3.21c-.1,0-.67,1.62-.86,1.89ZM115.7,54.35c.03.12.28,2.28.75,1.69l.91-14.94c-2.61-1.75-5.7-2.76-8.63-3.89l6.64,16.82c.03.19.26.24.33.32ZM193.86,40.6l-59.8,7.34-.66,83.44,57.17-12.99,3.29-77.8ZM128.88,45.69l-8.29-3.5c-.98,1.72-.6,3.79-.75,5.66-.23,2.98-.58,5.96-.75,8.95l9.79-11.11ZM129.45,128.56c.13.31.28,1.45.75,1.03l.56-80.33s-.42.18-.5.25c-2.75,2.45-5.43,6.4-8.06,9.17-2.85,3-5.92,5.89-8.23.31l-5.61-14.07.75,69.88,7.16-5.28-.12-.39c-.88-.59-4.09-2.25-2.98-3.56.63-.74,1.81,0,2.47.34,3.57,1.8,4.14,2.86,5.9,6.25.11.21.04.6.38.75.02.06-.02.13,0,.19.52,1.54,1.53,3.38,2.45,4.71.13.29.3.57.38.75.26.63.49,1.37.94,1.88.02.06-.02.13,0,.19.21.55.58,1.23.94,1.7.07.17.1.36.19.57.81,1.93,1.85,3.73,2.64,5.65ZM118.32,112c-.86-.61-6.57,4.75-7.52,5.54l15.06,10.27-7.55-15.81Z"/>
        <path class="cls-6" d="M193.86,40.6l-3.29,77.8-57.17,12.99.66-83.44,59.8-7.34ZM186.52,56.99s.08-.25-.11-.39c-.51-.36-1.72-.33-2.22,0-.22.14-.08.37-.11.39-.06.06-.13.12-.19.19-.54.11-1.11.61-1.55.95-.03.02-.71.53-.34.56-3.44,2.82-6.97,5.52-10.45,8.29-.09-1.39-.65-4.05-2.62-2.81-1.09.69-.89,5.11.03,6.02,1.45,1.43,3.33-.08,4.75-.67-1.43,3.04.24,8.63,4.39,7.78.71-.15,1.65-1.14,2.21-1.65,0,0,.06.2.26.01,1.97-1.76,2.15-7.82.31-9.68-.2-.21-.37-.11-.39-.12-.18-.14-.3-.32-.38-.38-.03-.42-.12-.52.23-.82.75-.65,1.8-1.13,2.41-2l.19-.19c.73.05,1.11-.7,1.61-1.13s.65-.55,1.03-.95c.06-.06.13-.12.19-.19,1.09-.37,1.53-.95,1.49-2.14-.03-.98-.43-.75-.55-.87-.06-.06-.14-.14-.19-.19ZM150.36,66.78v.75c-.57-.05-1.27.8-1.51,1.32-.06.06-.13.12-.19.19-2.5,2.63-2.54,6.76-.97,9.92.14.28.37.89.78.81.07.12.11.26.19.38.11.17.64,1.1.69,1.14.09.08,2.12.92,2.24.93.52.05,2.59-.81,3.05-1.18.09-.07.02-.3.05-.32.06-.06.13-.13.19-.19.2-.2.3-.27.57-.57.13-.15.29-.28.38-.38.32-.37.74-.66,1.01-1.15,1.18-2.1.88-5.51.26-7.75-.05-.17-.4-.46-.33-.51.66-.16,1.34.6,1.66.73.68.28,2.93,1.09,3.55,1.14.45.03,1.44-.17,1.82-.37.21-.11.12-.36.14-.37.31-.22.72-.39,1.01-.8.69-1.01.8-1.94.94-3.03.02-.17.28-.32.27-.56,0-.29-.35-.72-.35-1.07l-.18.19c-.7-.92-1.52-1.5-2.69-.9s-.44,2.01-.91,2.96l-.59-.02c-4.4-2.08-8.8-4.14-13.21-6.2-.91-.43-3.64-2.07-4.35-2.05-1.63.04-1.96,1.42-1.44,2.76,2.59,1.49,5.27,2.87,7.93,4.22ZM158.45,83.74c-4.66,2.82-9.32,8.7-10.49,14.09-.66,3.02-.16,6.8,3.61,7.01,5.78.32,8.71-8.55,16.58-7.91,4.48.36,6.94,4.35,11.4,2.45.28-.12.36-.23.57-.38.07-.05.12-.13.19-.19,3.01-1.75,2.97-6.51,2.13-9.57-2.41-8.74-12.09-10.55-19.79-7.81-1.44.51-2.47,1.19-3.81,1.85-.1.05-.8.3-.38.47Z"/>
        <path class="cls-6" d="M121.54,112.18c-1.76-3.39-2.33-4.45-5.9-6.25-.66-.33-1.84-1.08-2.47-.34-1.11,1.3,2.1,2.97,2.98,3.56l.12.39-7.16,5.28-.75-69.88,5.61,14.07c2.31,5.58,5.38,2.69,8.23-.31,2.63-2.76,5.31-6.72,8.06-9.17.08-.07.48-.28.5-.25l-.56,80.33c-.47.41-.63-.72-.75-1.03l-.39-1.92c-.61-.9-1.33-2.2-1.65-3.29-.13-.45.13-.51-.59-.44-.08-.2-.12-.39-.19-.57-.2-.5-.38-1.77-.94-1.7-.02-.05.02-.13,0-.19-.23-.61-.51-1.42-.57-2.07l-.37.19c-.08-.19-.25-.47-.38-.75-.61-1.4-1.18-2.82-1.92-4.21-.14-.26-.07-.6-.53-.5-.02-.06.02-.13,0-.19-.08-.27-.07-.65-.19-.94l-.19.19ZM124.7,107.99c1.09-1.8-.26-2.53-1.59-3.5-2.6-1.9-5.83-3.32-8.41-5.34-1.36-.7-2.4.17-1.64,1.64,1.18,2.3,7.7,5.04,9.7,7.06.6.28,1.34.55,1.94.13Z"/>
        <path class="cls-6" d="M180.3,36.65c.19-.27.76-1.89.86-1.89l8.18,3.21-55.63,6.59-8.59-3.76c3.69-.26,7.35-.91,11.02-1.32,11-1.21,22.06-1.9,32.97-3.78.44-.1.49.26.65.39.07.19.23.15.38.19.2.06.37.12.57.19-.1.47.22.4.51.51,1.97.77,5.79,1.04,7.83.54.5-.12.97-.46,1.26-.87Z"/>
        <path class="cls-6" d="M169.56,31.01l-.51,2.06c-16.26,2.3-32.68,3.47-48.94,5.81l-7.99-3.65c17.76-2.09,35.61-3.36,53.41-5.18l4.04.96Z"/>
        <path class="cls-6" d="M118.32,112l7.55,15.81-15.06-10.27c.95-.79,6.66-6.16,7.52-5.54Z"/>
        <path class="cls-6" d="M128.88,45.69l-9.79,11.11c.17-2.99.52-5.97.75-8.95.15-1.88-.23-3.94.75-5.66l8.29,3.5Z"/>
        <path class="cls-3" d="M183.51,10.28l6.22,3.77c-2.07,1.09-4.65,2.24-6.59,3.39l-6.03-3.2c1.98-1.59,4.21-2.64,6.4-3.96Z"/>
        <path class="cls-6" d="M180.12,20.45c-.5,1.27-.86,4.64-1.13,6.22l-4.9-3.58c.32-1.99.36-3.65.94-5.65,1.64,1.07,3.23,2.31,5.09,3.01Z"/>
        <path class="cls-4" d="M187.46,8.02l2.13,1.17c1.58.49,3.09,1.48,4.46,2.41-1.36.66-2.93,1.71-4.33,2.45l-6.22-3.77c1.31-.78,2.64-1.5,3.96-2.26Z"/>
        <path class="cls-6" d="M178.23,31c-.1.58-.11,2.76-.56,3.11-.39.13-.81.24-1.23.28-.72.06-3.98-.15-4.04-1.01.37-1.91.65-3.84.93-5.76,1.74.92,3.1,2.62,4.9,3.39Z"/>
        <path class="cls-4" d="M177.1,14.23l6.03,3.2c-1,.6-2.58,1.92-3.01,3.01-1.85-.7-3.44-1.95-5.09-3.01.57-1.95.54-1.97,2.07-3.2Z"/>
        <path class="cls-4" d="M178.99,26.67c-.25,1.44-.5,2.89-.75,4.33-1.8-.77-3.16-2.47-4.9-3.39.22-1.51.51-3.02.75-4.52l4.9,3.58Z"/>
        <path class="cls-6" d="M187.46,8.02c.05-.03.14-.25.31-.35,1.55-.9,3.11-1.81,4.68-2.67.55,1.13.76,2.37,1.45,3.45.61.96,1.5,1.65,2.42,2.29-.59.41-1.68.57-2.26.85-1.37-.94-2.88-1.93-4.46-2.41l-2.13-1.17Z"/>
        <path class="cls-3" d="M115.7,54.35c-.07-.08-.3-.13-.33-.32l-6.64-16.82c2.94,1.13,6.03,2.14,8.63,3.89l-.91,14.94c-.47.59-.72-1.57-.75-1.69.1.12.2.41.28.38l.28-.48.86-13.09c-.84-.59-7.31-3.5-7.63-3.19,1.62,5.51,4.68,10.88,6.21,16.39Z"/>
        <path class="cls-6" d="M198.57,8.4c-1.89-.82-3.02-2.87-3.01-4.9,1.53,1.18,2.82,2.93,3.01,4.9Z"/>
        <path class="cls-3" d="M180.3,36.65c-.29.4-.76.75-1.26.87-2.04.5-5.86.23-7.83-.54-.3-.12-.61-.05-.51-.51,3.18,1.11,6.39,1.4,9.61.19Z"/>
        <path class="cls-3" d="M121.91,113.12c.46-.1.39.23.53.5.73,1.39,1.31,2.81,1.92,4.21-.92-1.32-1.93-3.17-2.45-4.71Z"/>
        <path class="cls-3" d="M126.81,122.91c.72-.08.46-.01.59.44.32,1.09,1.05,2.39,1.65,3.29l.39,1.92c-.79-1.93-1.83-3.72-2.64-5.65Z"/>
        <path class="cls-3" d="M125.68,120.47c-.45-.51-.68-1.26-.94-1.88l.37-.19c.06.65.34,1.46.57,2.07Z"/>
        <path class="cls-3" d="M125.68,120.65c.57-.07.74,1.19.94,1.7-.36-.46-.73-1.15-.94-1.7Z"/>
        <path class="cls-3" d="M121.91,112.93c-.34-.15-.27-.55-.38-.75l.19-.19c.12.29.11.67.19.94Z"/>
        <path class="cls-3" d="M170.13,36.27c-.14-.04-.31,0-.38-.19.06.05.3.05.38.19Z"/>
        <path class="cls-2" d="M158.45,83.74c7.43-4.5,19.96-5.13,23.36,4.61,1.07,3.06,1.24,8.26-1.51,10.46-.07.05-.12.14-.19.19-.27,0-.48.11-.57.38-4.46,1.91-6.92-2.09-11.4-2.45-7.87-.63-10.8,8.24-16.58,7.91-3.77-.21-4.27-4-3.61-7.01,1.17-5.39,5.83-11.27,10.49-14.09ZM164.1,94.66c.32-.43-1.63-1.41-1.94-1.54-2.67-1.09-6.25-.88-8.77.53-4.11,2.28-4.34,12.04,1.57,7.22.7-.57,1.29-1.39,1.98-1.97,2.14-1.82,4.37-3.54,7.16-4.24Z"/>
        <path class="cls-2" d="M150.36,66.78c-2.66-1.35-5.34-2.73-7.93-4.22-.52-1.33-.19-2.72,1.44-2.76.71-.02,3.44,1.63,4.35,2.05,4.4,2.07,8.81,4.12,13.21,6.2l.59.02c.46-.95-.22-2.37.91-2.96s1.99-.02,2.69.9c.03,1.31-.09,2.73-.72,3.89-.3.56-.77.84-.98,1.38-.46-.05-.81.31-1.24.37-1.16.16-4.3-1.11-5.49-1.65-.18-.08-.95-.66-1-.6,1.07,2.66,1.45,5.27.62,8.06-.25.82-.68,1.36-.99,2.11-.08.1-.24.23-.38.38l-.57.57c-.06.06-.13.13-.19.19-2.09,1.33-4.32,1.38-6.03-.57-.08-.12-.12-.26-.19-.38-.21-.38-.53-.69-.7-1.09-1.19-2.9-.81-7.01.89-9.64.06-.06.12-.13.19-.19.68-.64,1.47-1.42,2.45-1.51.13-.56-.5-.34-.94-.56Z"/>
        <path class="cls-2" d="M186.52,56.99c.05.05.13.13.19.19.58,1.53-.07,2.03-.94,3.01-.06.06-.13.13-.19.19l-2.64,2.07-.19.19-3.11,2.25c-.34.5.35.47.48.57.08.06.2.24.38.38,1.84,2.9,1.83,6.97-.19,9.79-.56.52-1.5,1.51-2.21,1.65-4.15.85-5.82-4.74-4.39-7.78-1.42.59-3.3,2.1-4.75.67-.92-.9-1.12-5.32-.03-6.02,1.97-1.25,2.52,1.41,2.62,2.81,3.48-2.77,7.01-5.47,10.45-8.29.6-.49,1.31-.92,1.88-1.51.06-.06.13-.12.19-.19.93-.56,1.5-.4,2.45,0Z"/>
        <path class="cls-3" d="M158.45,83.74c-.42-.17.28-.42.38-.47,1.33-.66,2.36-1.33,3.81-1.85,7.7-2.74,17.38-.93,19.79,7.81.84,3.05.88,7.82-2.13,9.57,2.76-2.2,2.58-7.4,1.51-10.46-3.4-9.74-15.94-9.1-23.36-4.61Z"/>
        <path class="cls-3" d="M148.66,69.05c-1.69,2.64-2.08,6.74-.89,9.64.17.41.49.72.7,1.09-.41.08-.65-.54-.78-.81-1.56-3.16-1.53-7.29.97-9.92Z"/>
        <path class="cls-3" d="M165.61,66.03l.18-.19c0,.35.35.78.35,1.07,0,.24-.25.39-.27.56-.14,1.08-.25,2.02-.94,3.03-.28.41-.7.58-1.01.8-.02.01.07.26-.14.37-.37.2-1.37.4-1.82.37-.62-.04-2.87-.86-3.55-1.14-.32-.13-1-.9-1.66-.73-.07.06.28.34.33.51.62,2.24.92,5.65-.26,7.75-.27.49-.69.78-1.01,1.15.32-.75.75-1.29.99-2.11.84-2.78.45-5.4-.62-8.06.05-.06.82.52,1,.6,1.18.54,4.33,1.81,5.49,1.65.42-.06.78-.42,1.24-.37.21-.54.67-.81.98-1.38.63-1.17.75-2.59.72-3.89Z"/>
        <path class="cls-3" d="M180.49,65.84s.19-.08.39.12c1.83,1.87,1.65,7.92-.31,9.68-.21.19-.25-.02-.26-.01,2.02-2.82,2.03-6.89.19-9.79Z"/>
        <path class="cls-3" d="M148.66,80.16c1.7,1.94,3.94,1.9,6.03.57-.02.02.04.25-.05.32-.46.37-2.53,1.23-3.05,1.18-.12-.01-2.15-.85-2.24-.93-.05-.04-.58-.97-.69-1.14Z"/>
        <path class="cls-3" d="M186.71,57.18c.12.12.52-.1.55.87.04,1.19-.4,1.77-1.49,2.14.87-.98,1.52-1.48.94-3.01Z"/>
        <path class="cls-3" d="M184.07,56.99s-.11-.25.11-.39c.51-.33,1.71-.36,2.22,0,.2.14.09.37.11.39-.95-.4-1.52-.56-2.45,0Z"/>
        <path class="cls-3" d="M150.36,66.78c.44.22,1.07,0,.94.56-.97.09-1.77.87-2.45,1.51.23-.52.94-1.37,1.51-1.32v-.75Z"/>
        <path class="cls-3" d="M182.75,62.64c-.6.87-1.65,1.35-2.41,2-.35.3-.26.4-.23.82-.13-.1-.81-.07-.48-.57l3.11-2.25Z"/>
        <path class="cls-3" d="M185.58,60.38c-.38.39-.54.52-1.03.95s-.87,1.17-1.61,1.13l2.64-2.07Z"/>
        <path class="cls-3" d="M183.88,57.18c-.57.59-1.28,1.01-1.88,1.51-.37-.02.31-.54.34-.56.44-.34,1-.84,1.55-.95Z"/>
        <path class="cls-3" d="M154.88,80.53l.57-.57c-.26.29-.37.36-.57.57Z"/>
        <path class="cls-3" d="M180.12,98.99c-.21.15-.29.26-.57.38.08-.27.29-.37.57-.38Z"/>
        <path class="cls-2" d="M124.7,107.99c-.61.41-1.34.14-1.94-.13-2-2.02-8.52-4.76-9.7-7.06-.76-1.47.29-2.34,1.64-1.64,2.58,2.02,5.8,3.44,8.41,5.34,1.33.97,2.68,1.7,1.59,3.5Z"/>
        <path class="cls-6" d="M115.7,54.35c-1.54-5.51-4.6-10.88-6.21-16.39.33-.31,6.8,2.6,7.63,3.19l-.86,13.09-.28.48c-.08.03-.18-.26-.28-.38Z"/>
        <path class="cls-4" d="M164.1,94.66c-2.79.7-5.02,2.42-7.16,4.24-.69.58-1.28,1.4-1.98,1.97-5.91,4.82-5.68-4.94-1.57-7.22,2.53-1.4,6.11-1.62,8.77-.53.32.13,2.26,1.11,1.94,1.54Z"/>
      </g>
    </g>
  </g>
</svg>