<?xml version="1.0" encoding="UTF-8"?>
<svg id="Layer_2" data-name="Layer 2" xmlns="http://www.w3.org/2000/svg" viewBox="0 0 763.95 88.87">
  <defs>
    <style>
      .cls-1 {
        fill: #fff;
      }
    </style>
  </defs>
  <g id="Layer_1-2" data-name="Layer 1">
    <g>
      <g>
        <path class="cls-1" d="M52.91,14.2v17.17h-17.92v57.5h-17.07V31.38H0V14.2h52.91Z"/>
        <path class="cls-1" d="M115.74,27.54v28.06c0,5.65-3.52,10.45-8.43,12.37l8.43,20.91h-18.13l-8.11-19.95h-9.49v19.95h-17.07V14.2h39.47c7.36,0,13.33,5.97,13.33,13.33ZM98.67,48.34v-13.55c0-1.92-1.6-3.41-3.52-3.41h-15.15v20.37h15.15c1.92,0,3.52-1.49,3.52-3.41Z"/>
        <path class="cls-1" d="M179.74,88.87h-17.07l-2.99-10.77h-18.46l-2.99,10.77h-17.07l20.8-74.67h16.96l20.8,74.67ZM154.89,60.71l-4.48-15.89-4.37,15.89h8.85Z"/>
        <path class="cls-1" d="M242.57,14.2v74.67h-17.07l-18.67-38.83v38.83h-17.07V14.2h17.07l18.67,38.94V14.2h17.07Z"/>
        <path class="cls-1" d="M299.64,56.34v19.31c0,7.36-5.97,13.23-13.33,13.23h-33.71v-17.07h29.87v-11.63h-16.64c-7.36,0-13.23-5.97-13.23-13.33v-19.31c0-7.36,5.97-13.33,13.23-13.33h33.82v17.17h-29.97v11.63h16.64c7.36,0,13.33,5.97,13.33,13.33Z"/>
        <path class="cls-1" d="M326.73,31.38v11.63h21.44v17.07h-21.44v28.8h-17.07V14.2h46.94v17.17h-29.87Z"/>
        <path class="cls-1" d="M383.69,31.38v11.63h21.44v17.07h-21.44v11.73h29.87v17.07h-46.94V14.2h46.94v17.17h-29.87Z"/>
        <path class="cls-1" d="M476.39,27.54v28.06c0,5.65-3.52,10.45-8.43,12.37l8.43,20.91h-18.13l-8.11-19.95h-9.49v19.95h-17.07V14.2h39.47c7.36,0,13.33,5.97,13.33,13.33ZM459.33,48.34v-13.55c0-1.92-1.6-3.41-3.52-3.41h-15.15v20.37h15.15c1.92,0,3.52-1.49,3.52-3.41Z"/>
        <path class="cls-1" d="M513.73,14.2h17.07v61.34c0,7.36-5.97,13.33-13.33,13.33h-20.27c-7.36,0-13.23-5.97-13.23-13.33v-15.47h17.07v11.73h12.69V14.2Z"/>
        <path class="cls-1" d="M576.56,14.2h17.07v61.44c0,7.36-5.97,13.23-13.33,13.23h-26.24c-7.36,0-13.23-5.87-13.23-13.23V14.2h17.07v57.6h18.67V14.2Z"/>
        <path class="cls-1" d="M620.72,88.87h-17.07V14.2h17.07v74.67Z"/>
        <path class="cls-1" d="M683.55,63.27v12.27c0,7.36-5.97,13.33-13.33,13.33h-26.14c-7.36,0-13.33-5.97-13.33-13.33V27.54c0-7.36,5.97-13.33,13.33-13.33h26.14c7.36,0,13.33,5.97,13.33,13.33v12.27h-17.07v-8.43h-18.67v40.43h18.67v-8.53h17.07Z"/>
        <path class="cls-1" d="M710.64,31.38v11.63h21.44v17.07h-21.44v11.73h29.87v17.07h-46.94V14.2h46.94v17.17h-29.87Z"/>
      </g>
      <g>
        <path class="cls-1" d="M753.48,0v2.52h-2.63v8.44h-2.5V2.52h-2.63V0h7.77Z"/>
        <path class="cls-1" d="M763.95,0v10.96h-2.5v-4.9l-1.6,3.85h-.8l-1.6-3.85v4.9h-2.5V0h2.5l1.99,4.81,2-4.81h2.5Z"/>
      </g>
    </g>
  </g>
</svg>